<svg width="21" height="23" viewBox="0 0 21 23" fill="none" xmlns="http://www.w3.org/2000/svg">
<path d="M19.5893 6.7541C19.109 5.63115 18.4197 4.62295 17.5444 3.7541C16.6692 2.89344 15.6545 2.21311 14.5237 1.7377C13.3541 1.2459 12.1148 1 10.8368 1C9.55878 1 8.31949 1.2459 7.14991 1.7377C6.01907 2.21311 5.0044 2.88525 4.12915 3.7541C3.25391 4.62295 2.56456 5.63115 2.08434 6.7541C1.58863 7.91803 1.33301 9.16393 1.33301 10.4426C1.33301 12.6803 2.12305 14.8279 3.57146 16.5328L2.79691 21L6.91755 19.0574C8.14909 19.6148 9.45808 19.8934 10.829 19.8934C12.1071 19.8934 13.3464 19.6475 14.5159 19.1557C15.6468 18.6803 16.6614 18.0082 17.5367 17.1393C18.4119 16.2705 19.1013 15.2623 19.5815 14.1393C20.0772 12.9754 20.3328 11.7295 20.3328 10.4508C20.3406 9.16393 20.085 7.92623 19.5893 6.7541Z" stroke="white" stroke-width="1.2"/>
<path d="M14.3578 12.1205C13.9915 11.9363 13.7238 11.823 13.5336 11.7522C13.4138 11.7097 13.1321 11.5822 13.0334 11.6601C12.7235 11.9151 12.3924 12.6375 12.0402 12.772C11.1667 12.602 10.3566 12.0001 9.72259 11.3839C9.44082 11.1148 8.91953 10.35 8.80682 10.1446C8.78569 9.93215 9.16607 9.64887 9.25061 9.48598C9.68736 8.99024 9.35628 8.67864 9.29993 8.47326C9.20131 8.2608 9.03225 7.87838 8.88432 7.56677C8.75752 7.36139 8.72932 7.05687 8.5039 6.94356C7.54586 6.44782 6.99643 7.43929 6.77101 7.95628C5.41145 11.2494 13.5829 17.5169 15.2454 13.1969C15.3299 12.8216 15.2947 12.6799 15.1679 12.51C14.9143 12.3329 14.6184 12.255 14.3578 12.1205Z" stroke="white" stroke-width="0.84398"/>
</svg>
